<?xml version="1.0" encoding="UTF-8"?>
<svg id="Capa_2" data-name="Capa 2" xmlns="http://www.w3.org/2000/svg" viewBox="0 0 358 108.3">
  <defs>
    <style>
      .cls-1, .cls-2 {
        fill: #1a2542;
      }

      .cls-2 {
        fill-rule: evenodd;
      }
    </style>
  </defs>
  <g id="Capa_4" data-name="Capa 4">
    <g>
      <path class="cls-2" d="M227.8,105.31c-.64,1.14-.74,1.61-2.07,2.13-.54.1-1.08.1-1.62,0-1.38-.49-1.55-1.32-2.11-2.36l-46.48-87.36c-.38-.68-.79-1.36-.86-2.17,0,0-.42-2.24,1.88-2.24,4.97,0,9.14.13,13.71.13,1.5-.02,2.4.43,3.1,1.61l29.74,57.32c.6.84.74,1.02,1.15,1.5,1.06.43,1.82.1,2.44-1.07l29.06-55.46s1.78-3.92,3.53-3.92c4.69.02,9.19.27,13.89.27,2.07,0,2.07,1.62,1.95,2.05-1.42,2.49-2.02,3.77-2.57,5.04l-44.75,84.54Z"/>
      <path class="cls-2" d="M304.83,2.2c.64-1.14.74-1.61,2.07-2.13.54-.1,1.08-.1,1.62,0,1.38.49,1.55,1.32,2.11,2.36l46.48,87.36c.38.68.79,1.36.86,2.17,0,0,.42,2.24-1.88,2.24-4.97,0-9.14-.13-13.71-.13-1.5.02-2.4-.43-3.1-1.61l-29.74-57.32c-.6-.84-.74-1.02-1.15-1.5-1.06-.43-1.82-.1-2.44,1.07l-29.06,55.46s-1.78,3.92-3.53,3.92c-4.69-.02-9.19-.27-13.89-.27-2.07,0-2.07-1.62-1.95-2.05,1.42-2.49,2.02-3.77,2.57-5.04L304.83,2.2Z"/>
      <path class="cls-1" d="M171.95,68.96c-1.16-2.59-3.42-5.34-4.85-6.97-2.12-2.06-3.75-3.43-6.64-4.44.18-.47.48-.59.73-.75,2.3-1.45,4.09-3.39,5.48-5.7,2.18-3.63,3.31-7.56,3.19-11.81-.28-1.07.14-2.13.01-3.22-.51-4.42-2.07-8.41-4.68-11.99-.19-.27-.41-.51-.64-.74-1.32-1.25-2.5-2.65-4-3.71-.54-.4-1.13-.75-1.67-1.16-2.25-1.54-4.76-2.47-7.36-3.2-.43-.11-.85-.26-1.26-.41-3.12-.67-6.26-.77-9.47-.74-14.06.14-28.12.06-42.18.06-.52,0-1.05.06-1.56-.11-1.81-.59-3.68,1.06-3.17,2.92.35.77.41,1.57.41,2.41-.01,26.77,0,53.55-.02,80.32,0,2.3.15,4.61-.21,6.9.11.92.63,1.43,1.54,1.55,14.36.06,44.14.14,45.99.14,3.48,0,11.13-1.01,13.16-1.75,8.32-3.01,19.1-10.17,19.1-21.61.13-1.25.89-10.1-1.91-15.98ZM109.87,30.26c0-1.73.61-2.34,2.37-2.34,9.3,0,18.6.01,27.89.05,1.74,0,13.78,1.18,13.88,11.98.07,7.53-3.7,12.33-10.11,12.33-3.02,0-26.83.04-31.68.03-1.85,0-2.36-.49-2.36-2.28,0-6.59,0-13.18,0-19.78ZM148.68,93.39c-1.43.35-13.39.91-17.78.92q-9.21.03-18.4,0c-2.23,0-2.68-.44-2.68-2.68,0-7.64,0-15.27,0-22.91,0-2.27.51-2.78,2.74-2.78,5.15,0,12.07,0,18.08,0,4.38.09,14.47-.28,19.59,1.47,4.58,1.56,8.18,5.33,8.18,12.6,0,6.88-4.72,12.15-9.73,13.38Z"/>
      <path class="cls-1" d="M78.16,68.3c-2.71-5.25-8.6-10.4-11.49-11.41.18-.47.48-.59.73-.75,2.3-1.45,4.09-3.39,5.48-5.7,2.18-3.63,3.31-7.56,3.19-11.81-.28-1.07.14-2.13.01-3.22-.51-4.42-2.07-8.41-4.68-11.99-.19-.27-.41-.51-.64-.74-1.32-1.25-2.5-2.65-4-3.71-.54-.4-1.13-.75-1.67-1.16-2.25-1.54-4.76-2.47-7.36-3.2-.43-.11-.85-.26-1.26-.41-3.12-.67-6.26-.77-9.47-.74-14.06.14-28.12.06-42.18.06-.52,0-1.05.06-1.56-.11-1.81-.59-3.68,1.06-3.17,2.92.35.77.41,1.57.41,2.41-.01,26.77,0,53.55-.02,80.32,0,2.3.15,4.61-.21,6.9.11.92.63,1.43,1.54,1.55,14.36.06,44.14.14,45.99.14,3.48,0,11.13-1.01,13.16-1.75,8.32-3.01,17.58-10.26,19.1-21.61.51-3.92,1.03-10.3-1.91-15.98ZM16.07,29.61c0-1.73.61-2.34,2.37-2.34,9.3,0,18.6.01,27.89.05,1.74,0,13.78,1.18,13.88,11.98.07,7.53-4.17,11.1-10.5,12.08-2.78.43-26.44.29-31.28.29-1.85,0-2.36-.49-2.36-2.28,0-6.59,0-13.18,0-19.78ZM54.89,92.74c-1.43.35-13.39.91-17.78.92q-9.21.03-18.4,0c-2.23,0-2.68-.44-2.68-2.68,0-7.64,0-15.27,0-22.91,0-2.27.51-2.78,2.74-2.78,5.15,0,12.07,0,18.08,0,4.38.09,14.47-.28,19.59,1.47,4.58,1.56,8.18,5.33,8.18,12.6,0,6.88-4.72,12.15-9.73,13.38Z"/>
    </g>
  </g>
</svg>