<?xml version="1.0" encoding="UTF-8"?>
<svg id="Capa_2" data-name="Capa 2" xmlns="http://www.w3.org/2000/svg" viewBox="0 0 447.04 141.33">
  <defs>
    <style>
      .cls-1 {
        fill: #f5cb00;
      }
    </style>
  </defs>
  <g id="Capa_4" data-name="Capa 4">
    <g>
      <path class="cls-1" d="M233.57,43.11h0M224.88,0c-5.74,0-11.33,1.11-15.73,3.13-9.74,4.49-17.09,14.78-18.29,24.98-.53.23-1.05.49-1.56.77-1.39-.62-2.81-1.16-4.26-1.61-3.91-1.25-8.06-1.88-12.35-1.88-7.23,0-14.33,1.86-20,5.25-4.66,2.79-8.63,6.66-11.79,11.25-2.26-7.26-5.92-14-10.77-19.85C118.62,8.11,101.6.45,82.19.45,63.8.45,45.32,7.42,30.15,20.08,15.02,32.7,4.77,49.64,1.29,67.8c-3.71,19.45.66,37.9,12.29,51.95,11.51,13.91,28.55,21.57,47.98,21.57,18.37,0,36.85-6.97,52.02-19.62,10.25-8.55,18.25-19.08,23.43-30.62,6.99,14.73,21.21,23.59,38.69,23.59.22,0,.44,0,.66,0,3.29-.03,12.68-.51,21.13-4.42,1.55,1.1,3.28,1.92,5.11,2.42,1.81.5,4.29.96,10.2.96,1.19,0,5.27-.03,7.97-.35,5.06-.61,9.56-3.54,12.16-7.93,7.53,6.16,17.04,9.41,27.69,9.41,4.18,0,8.49-.52,12.81-1.53,4.28-1.02,7.28-2.45,9.26-3.39.7-.33,1.3-.62,1.64-.73,1.35-.46,2.63-1.09,3.81-1.88,7.58,5.11,16.75,7.54,25.83,7.54s17.75-2.33,24.2-6.38c5.3,4.03,12.17,6.28,19.89,6.32l-.8,2.89c-2.26,8.15,2.04,16.69,9.94,19.72,5.64,2.16,11.42,3.26,17.18,3.26,11.12,0,21.01-4.11,27.85-11.56,7.67-8.34,11.61-19.05,15.08-28.5,0-.03.02-.05.03-.08l18.72-51.74c1.82-5.03,1.07-10.63-2-15.01-3.07-4.38-8.09-6.99-13.44-6.99h-12.43c-7.08,0-13.36,4.54-15.58,11.25h0c-5.61-7.38-13.94-11.16-24.85-11.25-2.02-.02-4.04-.03-6.07-.03-.26-9.06-7.81-16.2-16.87-15.94-1.09.03-2.17.17-3.23.41-1.29.3-11.41,2.95-15.81,5.22-4.25,2.2-7.32,6.14-8.43,10.79-3.65-1.08-7.78-1.89-12.53-1.89-3.4,0-6.87.4-10.58,1.24-.04,0-.09.02-.13.03-7.1,1.64-13.66,5.09-19.05,10-6.81-7.17-16.23-11.08-27.25-11.16h-.47c-2.66,0-5.24.22-7.71.66l.85-3.64c1.58-6.75-1.25-13.76-7.06-17.52-6.22-4.03-13.52-4.87-18.55-4.87Z"/>
      <path d="M224.88,16.41c3.62,0,7.25.7,9.63,2.24l-2.21,9.42c-3.18-.7-5.61-1.1-7.47-1.1-6.07,0-6.03,4.27-6.03,16.14h14.77l-3.81,9.43-10.96.07v44.38c-1.1.13-3.57.23-6,.23s-4.86-.1-5.83-.37v-44.18l-5.95-.13-3.68-9.36,9.63-.07.13-11.9c-.13-4.21,3.68-10.76,8.89-13.17,2.3-1.05,5.58-1.63,8.89-1.63M82.18,16.87c30.05,0,49.81,24.17,44.11,54.02-5.69,29.86-34.7,54.02-64.75,54.02s-49.84-24.17-44.15-54.02c5.72-29.86,34.7-54.02,64.78-54.02M45.92,117.46c-10.4-6.35-20.34-14.81-21.13-33.94.49-15.63,6.31-27.86,16.22-37.54,6.83-6.7,14.46-12.46,24.46-15.37v3.96c-8.11,1.14-15.86,7.42-17.3,15.7-1.93,11.22,4.15,20.63,15.04,25.28,4.55,2.19,14.58,5.79,16.68,10.17,1.21,2.68.59,4.81-2,6.38-1.98.93-4.21,1.32-6.5,1.32-3.92,0-8-1.14-11.26-2.69-2.8-1.37-4.21-2.86-6.9-2.86-.14,0-.28,0-.42.01-2.49.23-4.02,5.1-4.25,7.2-.03,1.14-.2,4.09,1.08,4.71,2.78,1.8,5.56,3.37,8.31,4.45,2.55.78,5.13,1.38,7.75,1.63.23.07.43.23.39.75-.1,3.53-.23,7.1-.33,10.63.07,1.7.1,2.85,2.13,2.91,25.51-2.68,48.99-23.71,53.86-49.25,4.19-21.91-6.6-40.52-25.21-47.03,17.99,8.24,24.07,23.94,22.21,40.62-.85,5.95-2.62,11.02-4.9,15.6-3.37,8.21-9.78,14.55-16.65,20.6-5.3,3.82-10.73,7.32-16.91,9.32-.15.04-.29.07-.42.07-.1,0-.2-.02-.29-.07.1-1.77.16-3.5.26-5.27,2.88-.46,5.66-1.77,8.44-3.24,1.96-1.05,3.79-2.52,5.46-4.42,1.99-1.9,3.3-4.91,4.38-8.37.91-4.25.56-8.44-1.01-12.56-2.16-4.15-5.53-7.59-10.23-10.24-5.46-2.94-10.92-5.92-16.38-8.86-1.9-1.18-3.63-2.55-4.68-4.64-1.21-2.81,0-4.61,2.55-5.82,1.37-.63,2.86-.94,4.37-.94.71,0,1.42.07,2.14.18,1.8.42,10.46,2.81,10.36,3.17.29.15.63.23,1.02.23,2.54,0,6.81-3.26,6.7-9.84-3.96-3.37-8.86-4.84-14.06-5.89.23-3.3.42-6.61.66-9.91-.56-1.41-.62-1.51-1.67-2.13-26.33,1.73-50.92,23.19-55.92,49.41-4.09,21.42,6.11,39.67,23.97,46.57M355.3,27.14v15.97c5.04,0,10.01-.03,14.95-.03,2.47,0,4.93,0,7.38.03,7.82.07,11.5,2.61,14.04,8.49,1.87,4.34,12.03,29.81,13.37,31.28l13.17-39.77h12.43l-18.72,51.74c-3.34,9.09-6.42,17.25-11.76,23.06-3.8,4.14-9.49,6.25-15.76,6.25-3.66,0-7.51-.72-11.31-2.17l2.67-9.63c2.67.59,5.56,1.87,8.61,1.87s6.42-1.34,9.84-6.15c.94-1.27,5.28-8.96,4.88-10.89l-19.52-44.52-24.26-.06v26c0,4.21-.27,8.49,3.34,9.56.77.24,1.56.36,2.37.36,3.05,0,5.69-1.71,7.99-2.57l3.88,8.09c-4.08,2.65-9.51,4.25-14.6,4.25-5.84,0-11.22-2.11-13.54-7.19-.6-1.27-1-3.01-1.27-6.08l-.14-32.15-9.56-.27-.07-9.56,9.62-.13v-11.96c1.93-1,9.35-3.21,11.96-3.81M314.83,41.67c5.12,0,9.18,1.52,14.2,3.51v10.29c-1.4-.6-2.67-1.47-4.41-2.27-2.54-1.08-5.51-1.65-8.43-1.65-2.7,0-5.37.49-7.61,1.51-12.1,5.55-12.97,27.81-1,33.69,2.65,1.31,5.12,1.82,7.48,1.82,4.5,0,8.61-1.85,12.77-3.56.8.8,3.14,6.75,3.48,8.09-3.39,3.07-10.11,5.25-17.33,5.25-12.61,0-26.72-6.65-27.19-26.84-.27-13.5,7.56-25.87,21.06-29.01,2.6-.58,4.89-.84,6.99-.84M257.35,41.77c.12,0,.23,0,.35,0,18.18.13,22.93,15.58,22.93,31.35l-34.63.07c.2,7.48,4.21,12.5,9.96,14.57,2.22.77,4.27,1.07,6.18,1.07,5.59,0,9.95-2.58,13.54-3.68l3.34,8.42c-3.14,1.07-5.15,2.67-9.36,3.68-3.13.74-6.16,1.1-9.06,1.1-14.7,0-25.71-9.33-26.77-26.03-.93-15.67,5.99-30.55,23.51-30.55M245.87,64.57h22.39c-.07-7.15-3.74-13.43-10.96-13.43-7.49.07-10.83,6.15-11.43,13.43M172.69,41.79c2.53,0,5.06.37,7.4,1.12,13.5,4.21,15.64,18.12,15.64,30.21h-34.56c.17,10.49,7.43,15.6,16.28,15.6,1.36,0,2.76-.12,4.17-.36,4.08-.73,6.02-2.27,9.16-3.14l3.34,7.89c-3.68,3.34-11.7,5.08-17.98,5.15-.15,0-.3,0-.46,0-32.37,0-33.21-42.37-14.58-53.54,3.21-1.92,7.39-2.92,11.58-2.92M183.57,64.57c-.33-7.34-3.8-13.44-11.06-13.44h-.24c-7.69.13-10.43,6.08-11.3,13.31l22.6.13Z"/>
    </g>
  </g>
</svg>