<?xml version="1.0" encoding="UTF-8"?>
<svg id="Capa_2" data-name="Capa 2" xmlns="http://www.w3.org/2000/svg" viewBox="0 0 522.1 107">
  <defs>
    <style>
      .cls-1 {
        fill: #243162;
      }

      .cls-1, .cls-2 {
        fill-rule: evenodd;
      }

      .cls-2 {
        fill: #3c74b9;
      }
    </style>
  </defs>
  <g id="Capa_4" data-name="Capa 4">
    <g>
      <g>
        <path id="r07tqv431a" class="cls-1" d="M187.83,56.62c0-8.98,2.73-13.28,13.28-12.89,1.95,0,5.08.78,7.03,1.17l-1.17,3.91c-1.95,0-5.08-.78-6.64-.78-4.69,0-5.47,1.56-5.47,8.98s0,5.47,1.17,7.03c1.17,1.56,2.34,1.56,4.69,1.56s3.91,0,6.64-1.17l1.17,4.3c-2.34,0-5.08,1.17-7.03,1.17-10.54,0-13.28-3.91-13.28-13.28h-.39ZM283.89,43.74c7.81,0,12.11,3.51,12.11,11.32v3.51h-16.79v1.56c0,3.51,1.56,5.08,5.08,5.08s6.64-.78,8.98-1.17h.78l1.17,4.3-3.12.78c-2.73,0-5.08.78-7.81.78-5.08,0-8.2-1.17-10.15-3.51-1.95-2.34-2.34-5.47-2.34-8.98,0-9.76,4.3-13.28,11.72-13.28h.39v-.39ZM269.05,34.36v34.75h-2.73c-2.73.78-4.69.78-6.64.78-11.72,0-14.06-5.08-14.06-13.28s2.73-12.5,11.32-12.5,3.12,0,3.91,0h1.17v-9.76h7.03ZM146.83,43.74c3.51,0,5.86.78,7.42,2.34,1.56,1.17,2.34,3.12,2.34,5.08v17.57h-3.12c-3.12.78-6.64,1.17-10.15.78-5.08-.78-8.59-3.51-8.59-8.2s2.73-7.03,8.98-7.81h6.25v-2.34c0-1.95-1.17-3.12-3.12-3.12s-5.08,0-8.2,1.17l-1.17.78-.78-4.3c3.91-.78,7.03-1.17,9.76-1.17h0v-.78h.39ZM221.41,43.74h1.17c7.03,0,11.32,4.3,11.32,12.5s-.78,7.42-2.73,9.76c-1.95,2.34-5.08,3.12-10.15,3.12-9.76,0-12.89-3.91-12.89-13.28s4.69-12.11,13.28-12.11h0ZM118.71,34.36h1.17c7.03,0,10.93,3.51,10.93,8.98s0,3.12-1.17,4.69c-1.17,1.56-1.17,2.34-1.95,3.12,2.34,1.17,4.69,3.12,4.69,7.42,0,7.81-5.08,10.15-12.11,10.54h-15.62v-34.75h14.06ZM172.6,43.74c4.69,0,7.42,1.17,9.37,3.12,1.95,1.95,2.73,5.08,2.73,8.98v12.89h-7.03v-14.84c0-4.69-1.56-6.25-5.08-6.25s-3.91,0-5.08.78v20.31h-7.03v-23.04l1.56-.78c3.12-1.17,6.25-1.56,9.76-1.56h.78v.39h0ZM221.41,48.03c-1.95,0-3.51,0-4.3,1.56-1.17,1.17-1.17,3.12-1.17,6.64,0,7.03,1.17,8.98,5.47,8.98s5.08-2.34,5.47-8.59v-1.56c0-5.47-2.34-7.03-5.47-7.03h0ZM257.34,48.03c-1.56,0-3.12,1.17-3.51,2.34-.39,1.17-1.17,3.12-1.17,6.25,0,6.25.78,8.98,5.86,8.98h3.12v-17.57h-1.17c-.78-.78-1.95-.78-3.51,0h.39,0ZM149.95,57.01h-4.69c-1.17,0-2.34,0-2.73,1.17-.78.78-1.17,1.56-1.17,3.12s.78,3.12,3.12,3.91h5.08v-8.2s.39,0,.39,0ZM120.27,53.89h-8.2v10.54h8.98c3.12,0,4.3-1.56,4.3-5.47s-3.12-4.69-5.08-5.08ZM284.28,48.03c-1.56,0-2.73,0-3.51,1.17s-1.17,2.34-1.17,4.3v.78h9.76v-1.56c-.78-3.51-1.95-4.69-5.08-4.69ZM118.71,39.44h-7.03v9.76h8.98c2.73-.78,3.51-1.95,3.51-5.47s-1.17-4.3-5.08-4.3h-.39Z"/>
        <path class="cls-2" d="M388.94,69.12h7.03v-24.99h-7.03v24.99ZM388.94,40.61h7.03v-5.08h-7.03v5.08ZM422.91,34.36v34.75h-5.08c-1.17,0-2.73.78-4.3.78-11.72,0-14.06-5.08-14.06-13.28s2.73-12.5,11.32-12.5,3.51,0,5.08,0v-9.76h7.03ZM414.71,48.03h-3.91c-1.56,0-3.12,1.17-3.51,2.34s-1.17,3.12-1.17,6.25c0,6.25.78,8.98,5.86,8.98h3.12v-17.57h-.78.39,0ZM453.76,69.12h7.03v-20.31c1.17,0,3.12-.78,5.08-.78,3.12,0,4.69,1.56,5.08,6.25v14.84h7.03v-12.89c0-3.91-.78-7.03-2.73-8.98-1.95-1.95-5.08-3.12-9.37-3.12s-7.03.78-10.54,1.95l-1.56.78v22.65h0v-.39h0ZM483.44,38.66v5.86h-4.3v4.3h4.3v12.5c0,5.86,1.17,8.59,7.03,8.59s2.34,0,4.69,0h1.56l-.78-4.69h-4.3c-1.17,0-1.17-.78-1.17-2.34v-14.06h5.47v-4.3h-5.47v-5.86h-7.03,0ZM437.75,43.74c8.2,0,12.11,3.91,12.11,12.11v2.73h-16.79v1.56c0,3.51,1.56,5.08,5.08,5.08s7.03-.78,9.76-1.17l.78,4.3-3.12.78c-2.73,0-5.08.78-7.81.78-5.08,0-8.2-1.17-10.15-3.51-1.95-2.34-2.34-5.47-2.34-8.98,0-9.37,5.08-12.89,12.11-12.89h0v-.78s.39,0,.39,0ZM438.14,48.03c-1.56,0-2.73,0-3.51,1.17s-1.17,2.73-1.17,5.08h9.76v-1.56c0-3.91-1.95-5.08-5.08-5.08h0v.39ZM509.99,43.74c8.2,0,12.11,3.91,12.11,12.11v2.73h-16.79v1.56c0,3.51,1.56,5.08,5.08,5.08s7.03-.78,9.76-1.17l.78,4.3-3.12.78c-2.73,0-5.08.78-7.81.78-5.08,0-8.2-1.17-10.15-3.51-1.95-2.34-2.34-5.47-2.34-8.98,0-9.37,4.69-12.89,12.11-12.89h0v-.78s.39,0,.39,0ZM509.99,48.03c-1.56,0-2.73,0-3.51,1.17-.78,1.17-1.17,2.73-1.17,5.08h9.76v-1.56c0-3.91-1.56-5.08-5.08-5.08h0v.39ZM385.03,64.43c-2.73.78-5.08.78-6.64,1.17-2.34,0-3.91,0-4.69-1.56-1.17-1.17-1.17-3.51-1.17-7.03,0-7.03,1.17-8.98,5.47-8.98s4.69.78,6.64,1.17l1.17-3.91c-2.34,0-5.08-1.17-7.03-1.17-10.54,0-13.28,3.91-13.28,12.89s2.73,13.28,13.28,12.89c2.34,0,5.08,0,7.03-1.17l-.78-3.91h0v-.39ZM363.56,64.43c-2.73.78-5.08.78-6.64,1.17-2.34,0-3.91,0-4.69-1.56-.78-1.17-1.17-3.51-1.17-7.03,0-7.03,1.17-8.98,5.47-8.98s4.69.78,6.64,1.17l.78-3.91c-2.34,0-5.08-1.17-7.03-1.17-10.54,0-13.28,3.91-13.28,12.89s2.73,13.28,13.28,12.89c2.34,0,5.08,0,7.03-1.17l-.78-3.91h.39v-.39ZM324.9,33.97c10.54,0,16.4,5.08,16.4,17.18v2.34c0,10.54-3.91,16.01-16.01,16.01s-10.54-1.17-13.28-4.3c-2.73-3.12-3.12-7.42-3.12-14.06-.78-12.11,4.69-17.18,16.01-17.18h0ZM324.9,39.05c-7.03,0-8.98,2.73-8.98,12.11s1.56,13.28,8.98,13.28h1.17c6.64,0,7.42-4.3,7.42-13.28s-1.17-7.42-2.34-9.37c-1.56-1.95-3.91-2.73-6.64-2.73h.39Z"/>
      </g>
      <g>
        <path class="cls-2" d="M0,64.43l42.56,42.56,42.56-42.56-9.76-9.76-32.41,32.8-22.65-22.65,22.65-22.65,9.76,9.76,9.76-9.76-19.53-19.53L0,64.82h0v-.39Z"/>
        <path class="cls-2" d="M85.91,42.56L43.35,0,.78,42.56l9.76,9.76L42.96,19.53l22.65,22.65-22.65,22.65-9.76-9.76-9.76,9.76,19.53,19.53,42.96-42.17"/>
      </g>
    </g>
  </g>
</svg>